<?xml version="1.0" encoding="utf-8"?>
<svg xmlns="http://www.w3.org/2000/svg" viewBox="87.5838 41.4046 345.3 15.8" width="345.3px" height="15.8px"><g id="Layer_1" transform="matrix(1, 0, 0, 1, -157.6497802734375, -246.48269653320312)"><g transform="matrix(1, 0, 0, 1, -157.566452, -57.412701)" style=""><g><g><g><g style=""><linearGradient id="SVGID_00000016769313528879689170000012681034096195928452_" gradientUnits="userSpaceOnUse" x1="255.6667" y1="353.0675" x2="730.3801" y2="353.0675"><stop offset="0" style="stop-color:#A47B2C"/><stop offset="0.2542" style="stop-color:#FFFDA4"/><stop offset="0.5028" style="stop-color:#A47B2C"/><stop offset="0.7514" style="stop-color:#FFFDA4"/><stop offset="1" style="stop-color:#9B7125"/></linearGradient><path style="fill:url(#SVGID_00000016769313528879689170000012681034096195928452_);" d="M404.8,345.4v15.4h-2v-15.4H404.8z"/><linearGradient id="SVGID_00000021084971194522389110000007373677090401286805_" gradientUnits="userSpaceOnUse" x1="255.6667" y1="353.0675" x2="730.3801" y2="353.0675"><stop offset="0" style="stop-color:#A47B2C"/><stop offset="0.2542" style="stop-color:#FFFDA4"/><stop offset="0.5028" style="stop-color:#A47B2C"/><stop offset="0.7514" style="stop-color:#FFFDA4"/><stop offset="1" style="stop-color:#9B7125"/></linearGradient><path style="fill:url(#SVGID_00000021084971194522389110000007373677090401286805_);" d="M426.9,345.4v1.6h-4.2v13.7h-2V347 h-4.2v-1.6H426.9z"/><linearGradient id="SVGID_00000106827926905975463850000017568249749293652919_" gradientUnits="userSpaceOnUse" x1="255.6667" y1="347.8894" x2="730.3801" y2="347.8894"><stop offset="0" style="stop-color:#A47B2C"/><stop offset="0.2542" style="stop-color:#FFFDA4"/><stop offset="0.5028" style="stop-color:#A47B2C"/><stop offset="0.7514" style="stop-color:#FFFDA4"/><stop offset="1" style="stop-color:#9B7125"/></linearGradient><path style="fill:url(#SVGID_00000106827926905975463850000017568249749293652919_);" d="M439,345.4h2.2l-2.1,5h-1.4L439,345.4 z"/><linearGradient id="SVGID_00000047756599180823709650000001980580710544936377_" gradientUnits="userSpaceOnUse" x1="255.6667" y1="353.0456" x2="730.3801" y2="353.0456"><stop offset="0" style="stop-color:#A47B2C"/><stop offset="0.2542" style="stop-color:#FFFDA4"/><stop offset="0.5028" style="stop-color:#A47B2C"/><stop offset="0.7514" style="stop-color:#FFFDA4"/><stop offset="1" style="stop-color:#9B7125"/></linearGradient><path style="fill:url(#SVGID_00000047756599180823709650000001980580710544936377_);" d="M454.9,360.4 c-0.8-0.4-1.4-0.9-1.9-1.5c-0.5-0.6-0.7-1.4-0.7-2.2h2.1c0.1,0.7,0.4,1.3,0.9,1.8c0.5,0.5,1.3,0.7,2.3,0.7c1,0,1.7-0.2,2.3-0.7 c0.6-0.5,0.8-1.1,0.8-1.8c0-0.6-0.2-1.1-0.5-1.4c-0.3-0.4-0.7-0.6-1.2-0.8s-1.1-0.4-2-0.6c-1-0.3-1.8-0.5-2.4-0.8 c-0.6-0.3-1.1-0.7-1.6-1.2c-0.4-0.6-0.6-1.3-0.6-2.3c0-0.8,0.2-1.6,0.6-2.2c0.4-0.6,1-1.1,1.8-1.5c0.8-0.4,1.7-0.5,2.7-0.5 c1.4,0,2.6,0.4,3.5,1.1c0.9,0.7,1.4,1.7,1.6,2.9h-2.2c-0.1-0.6-0.4-1.1-0.9-1.6c-0.5-0.4-1.3-0.7-2.2-0.7c-0.8,0-1.5,0.2-2,0.6 c-0.5,0.4-0.8,1-0.8,1.8c0,0.6,0.2,1,0.5,1.4c0.3,0.4,0.7,0.6,1.2,0.8c0.5,0.2,1.1,0.4,2,0.6c1,0.3,1.8,0.6,2.4,0.8 c0.6,0.3,1.1,0.7,1.6,1.3c0.4,0.6,0.7,1.3,0.7,2.3c0,0.7-0.2,1.5-0.6,2.1c-0.4,0.7-1,1.2-1.8,1.6c-0.8,0.4-1.7,0.6-2.8,0.6 C456.6,360.9,455.7,360.7,454.9,360.4z"/><linearGradient id="SVGID_00000171702913939068869150000003073946302889512322_" gradientUnits="userSpaceOnUse" x1="255.6667" y1="353.0675" x2="730.3801" y2="353.0675"><stop offset="0" style="stop-color:#A47B2C"/><stop offset="0.2542" style="stop-color:#FFFDA4"/><stop offset="0.5028" style="stop-color:#A47B2C"/><stop offset="0.7514" style="stop-color:#FFFDA4"/><stop offset="1" style="stop-color:#9B7125"/></linearGradient><path style="fill:url(#SVGID_00000171702913939068869150000003073946302889512322_);" d="M500.8,345.4l-5,9.6v5.8h-2V355 l-5-9.6h2.2l3.8,7.8l3.8-7.8H500.8z"/><linearGradient id="SVGID_00000043441305698003384870000003096041660565097110_" gradientUnits="userSpaceOnUse" x1="255.6667" y1="353.0565" x2="730.3801" y2="353.0565"><stop offset="0" style="stop-color:#A47B2C"/><stop offset="0.2542" style="stop-color:#FFFDA4"/><stop offset="0.5028" style="stop-color:#A47B2C"/><stop offset="0.7514" style="stop-color:#FFFDA4"/><stop offset="1" style="stop-color:#9B7125"/></linearGradient><path style="fill:url(#SVGID_00000043441305698003384870000003096041660565097110_);" d="M515.3,359.9 c-1.2-0.7-2.1-1.6-2.8-2.8c-0.7-1.2-1-2.5-1-4c0-1.5,0.3-2.8,1-4c0.7-1.2,1.6-2.1,2.8-2.8c1.2-0.7,2.5-1,3.9-1 c1.4,0,2.7,0.3,3.9,1c1.2,0.7,2.1,1.6,2.8,2.8c0.7,1.2,1,2.5,1,4.1c0,1.5-0.3,2.9-1,4.1c-0.7,1.2-1.6,2.1-2.8,2.8 c-1.2,0.7-2.5,1-3.9,1C517.7,360.9,516.4,360.6,515.3,359.9z M522.1,358.4c0.9-0.5,1.5-1.2,2-2.1c0.5-0.9,0.7-2,0.7-3.2 c0-1.2-0.2-2.3-0.7-3.2c-0.5-0.9-1.2-1.6-2-2.1c-0.9-0.5-1.8-0.7-2.9-0.7s-2.1,0.3-2.9,0.7c-0.9,0.5-1.5,1.2-2,2.1 c-0.5,0.9-0.7,2-0.7,3.2c0,1.2,0.2,2.3,0.7,3.2c0.5,0.9,1.2,1.6,2,2.1c0.9,0.5,1.8,0.7,2.9,0.7S521.2,358.9,522.1,358.4z"/><linearGradient id="SVGID_00000023966722870407635050000003549550015971443328_" gradientUnits="userSpaceOnUse" x1="255.6667" y1="353.1447" x2="730.3801" y2="353.1447"><stop offset="0" style="stop-color:#A47B2C"/><stop offset="0.2542" style="stop-color:#FFFDA4"/><stop offset="0.5028" style="stop-color:#A47B2C"/><stop offset="0.7514" style="stop-color:#FFFDA4"/><stop offset="1" style="stop-color:#9B7125"/></linearGradient><path style="fill:url(#SVGID_00000023966722870407635050000003549550015971443328_);" d="M540.7,345.4v9.7c0,1.4,0.3,2.4,1,3 c0.7,0.7,1.6,1,2.8,1c1.2,0,2.1-0.3,2.8-1c0.7-0.7,1-1.7,1-3v-9.7h2v9.7c0,1.3-0.3,2.4-0.8,3.2c-0.5,0.9-1.2,1.5-2.1,1.9 c-0.9,0.4-1.9,0.6-2.9,0.6c-1.1,0-2.1-0.2-2.9-0.6c-0.9-0.4-1.6-1.1-2.1-1.9s-0.8-2-0.8-3.2v-9.7H540.7z"/><linearGradient id="SVGID_00000088818623993733369470000012035895216624339361_" gradientUnits="userSpaceOnUse" x1="255.6667" y1="353.0675" x2="730.3801" y2="353.0675"><stop offset="0" style="stop-color:#A47B2C"/><stop offset="0.2542" style="stop-color:#FFFDA4"/><stop offset="0.5028" style="stop-color:#A47B2C"/><stop offset="0.7514" style="stop-color:#FFFDA4"/><stop offset="1" style="stop-color:#9B7125"/></linearGradient><path style="fill:url(#SVGID_00000088818623993733369470000012035895216624339361_);" d="M571,360.7l-3.7-6.3h-2.4v6.3h-2 v-15.4h5c1.2,0,2.1,0.2,2.9,0.6c0.8,0.4,1.4,0.9,1.8,1.6c0.4,0.7,0.6,1.4,0.6,2.3c0,1.1-0.3,2-0.9,2.8 c-0.6,0.8-1.5,1.3-2.7,1.6l3.9,6.4H571z M564.9,352.9h3c1.1,0,1.9-0.3,2.4-0.8c0.5-0.5,0.8-1.3,0.8-2.1c0-0.9-0.3-1.6-0.8-2.1 c-0.5-0.5-1.4-0.7-2.5-0.7h-3V352.9z"/><linearGradient id="SVGID_00000119100277422118106870000004632977733953259190_" gradientUnits="userSpaceOnUse" x1="255.6667" y1="353.0675" x2="730.3801" y2="353.0675"><stop offset="0" style="stop-color:#A47B2C"/><stop offset="0.2542" style="stop-color:#FFFDA4"/><stop offset="0.5028" style="stop-color:#A47B2C"/><stop offset="0.7514" style="stop-color:#FFFDA4"/><stop offset="1" style="stop-color:#9B7125"/></linearGradient><path style="fill:url(#SVGID_00000119100277422118106870000004632977733953259190_);" d="M609.4,345.4v1.6h-6.7v5.2h5.4v1.6 h-5.4v6.9h-2v-15.4H609.4z"/><linearGradient id="SVGID_00000166654089357362523710000011419824100131068597_" gradientUnits="userSpaceOnUse" x1="255.6667" y1="353.1113" x2="730.3801" y2="353.1113"><stop offset="0" style="stop-color:#A47B2C"/><stop offset="0.2542" style="stop-color:#FFFDA4"/><stop offset="0.5028" style="stop-color:#A47B2C"/><stop offset="0.7514" style="stop-color:#FFFDA4"/><stop offset="1" style="stop-color:#9B7125"/></linearGradient><path style="fill:url(#SVGID_00000166654089357362523710000011419824100131068597_);" d="M630.1,357.3h-6.7l-1.2,3.4h-2.1 l5.6-15.3h2.3l5.5,15.3h-2.1L630.1,357.3z M629.5,355.7l-2.8-7.8l-2.8,7.8H629.5z"/><linearGradient id="SVGID_00000135675405578008369940000009371288976571290302_" gradientUnits="userSpaceOnUse" x1="255.6667" y1="353.0565" x2="730.3801" y2="353.0565"><stop offset="0" style="stop-color:#A47B2C"/><stop offset="0.2542" style="stop-color:#FFFDA4"/><stop offset="0.5028" style="stop-color:#A47B2C"/><stop offset="0.7514" style="stop-color:#FFFDA4"/><stop offset="1" style="stop-color:#9B7125"/></linearGradient><path style="fill:url(#SVGID_00000135675405578008369940000009371288976571290302_);" d="M657.2,360.7h-2l-8.1-12.2v12.2h-2 v-15.4h2l8.1,12.2v-12.2h2V360.7z"/><linearGradient id="SVGID_00000177466290063126266780000005077841401070762402_" gradientUnits="userSpaceOnUse" x1="255.6667" y1="353.0675" x2="730.3801" y2="353.0675"><stop offset="0" style="stop-color:#A47B2C"/><stop offset="0.2542" style="stop-color:#FFFDA4"/><stop offset="0.5028" style="stop-color:#A47B2C"/><stop offset="0.7514" style="stop-color:#FFFDA4"/><stop offset="1" style="stop-color:#9B7125"/></linearGradient><path style="fill:url(#SVGID_00000177466290063126266780000005077841401070762402_);" d="M679.3,345.4v1.6h-4.2v13.7h-2V347 h-4.2v-1.6H679.3z"/><linearGradient id="SVGID_00000160898958177062618150000008631346354766210455_" gradientUnits="userSpaceOnUse" x1="255.6667" y1="353.1113" x2="730.3801" y2="353.1113"><stop offset="0" style="stop-color:#A47B2C"/><stop offset="0.2542" style="stop-color:#FFFDA4"/><stop offset="0.5028" style="stop-color:#A47B2C"/><stop offset="0.7514" style="stop-color:#FFFDA4"/><stop offset="1" style="stop-color:#9B7125"/></linearGradient><path style="fill:url(#SVGID_00000160898958177062618150000008631346354766210455_);" d="M700.1,357.3h-6.7l-1.2,3.4h-2.1 l5.6-15.3h2.3l5.5,15.3h-2.1L700.1,357.3z M699.6,355.7l-2.8-7.8l-2.8,7.8H699.6z"/><linearGradient id="SVGID_00000165934585592349349010000006577047034366802362_" gradientUnits="userSpaceOnUse" x1="255.6667" y1="353.0456" x2="730.3801" y2="353.0456"><stop offset="0" style="stop-color:#A47B2C"/><stop offset="0.2542" style="stop-color:#FFFDA4"/><stop offset="0.5028" style="stop-color:#A47B2C"/><stop offset="0.7514" style="stop-color:#FFFDA4"/><stop offset="1" style="stop-color:#9B7125"/></linearGradient><path style="fill:url(#SVGID_00000165934585592349349010000006577047034366802362_);" d="M717.3,360.4 c-0.8-0.4-1.4-0.9-1.9-1.5c-0.5-0.6-0.7-1.4-0.7-2.2h2.1c0.1,0.7,0.4,1.3,0.9,1.8c0.5,0.5,1.3,0.7,2.3,0.7c1,0,1.7-0.2,2.3-0.7 c0.6-0.5,0.8-1.1,0.8-1.8c0-0.6-0.2-1.1-0.5-1.4c-0.3-0.4-0.7-0.6-1.2-0.8c-0.5-0.2-1.1-0.4-2-0.6c-1-0.3-1.8-0.5-2.4-0.8 c-0.6-0.3-1.1-0.7-1.6-1.2c-0.4-0.6-0.7-1.3-0.7-2.3c0-0.8,0.2-1.6,0.6-2.2c0.4-0.6,1-1.1,1.8-1.5c0.8-0.4,1.7-0.5,2.7-0.5 c1.4,0,2.6,0.4,3.5,1.1c0.9,0.7,1.4,1.7,1.6,2.9h-2.2c-0.1-0.6-0.4-1.1-0.9-1.6c-0.5-0.4-1.3-0.7-2.2-0.7c-0.8,0-1.5,0.2-2,0.6 c-0.5,0.4-0.8,1-0.8,1.8c0,0.6,0.2,1,0.5,1.4c0.3,0.4,0.7,0.6,1.2,0.8c0.5,0.2,1.1,0.4,2,0.6c1,0.3,1.8,0.6,2.4,0.8 c0.6,0.3,1.1,0.7,1.6,1.3c0.4,0.6,0.7,1.3,0.7,2.3c0,0.7-0.2,1.5-0.6,2.1c-0.4,0.7-1,1.2-1.8,1.6c-0.8,0.4-1.7,0.6-2.8,0.6 C719,360.9,718.1,360.7,717.3,360.4z"/><linearGradient id="SVGID_00000080917156375239802240000003078173956654571666_" gradientUnits="userSpaceOnUse" x1="255.6667" y1="353.0675" x2="730.3801" y2="353.0675"><stop offset="0" style="stop-color:#A47B2C"/><stop offset="0.2542" style="stop-color:#FFFDA4"/><stop offset="0.5028" style="stop-color:#A47B2C"/><stop offset="0.7514" style="stop-color:#FFFDA4"/><stop offset="1" style="stop-color:#9B7125"/></linearGradient><path style="fill:url(#SVGID_00000080917156375239802240000003078173956654571666_);" d="M748.1,345.4l-5,9.6v5.8h-2V355 l-5-9.6h2.2l3.8,7.8l3.8-7.8H748.1z"/></g></g></g></g></g></g></svg>